<svg width="164" height="30" viewBox="0 0 164 30" fill="none" xmlns="http://www.w3.org/2000/svg">
<path d="M6.388 24.248H14.452V29H0.232V3.728H6.388V24.248ZM37.2243 8.912V29H31.0683V26.264C30.4443 27.152 29.5923 27.872 28.5123 28.424C27.4563 28.952 26.2803 29.216 24.9843 29.216C23.4483 29.216 22.0923 28.88 20.9163 28.208C19.7403 27.512 18.8283 26.516 18.1803 25.22C17.5323 23.924 17.2083 22.4 17.2083 20.648V8.912H23.3283V19.82C23.3283 21.164 23.6763 22.208 24.3723 22.952C25.0683 23.696 26.0043 24.068 27.1803 24.068C28.3803 24.068 29.3283 23.696 30.0243 22.952C30.7203 22.208 31.0683 21.164 31.0683 19.82V8.912H37.2243ZM44.7421 6.824C43.6621 6.824 42.7741 6.512 42.0781 5.888C41.4061 5.24 41.0701 4.448 41.0701 3.512C41.0701 2.552 41.4061 1.76 42.0781 1.136C42.7741 0.487998 43.6621 0.163998 44.7421 0.163998C45.7981 0.163998 46.6621 0.487998 47.3341 1.136C48.0301 1.76 48.3781 2.552 48.3781 3.512C48.3781 4.448 48.0301 5.24 47.3341 5.888C46.6621 6.512 45.7981 6.824 44.7421 6.824ZM47.8021 8.912V29H41.6461V8.912H47.8021ZM60.4353 29.288C58.6833 29.288 57.1233 28.988 55.7553 28.388C54.3873 27.788 53.3073 26.972 52.5153 25.94C51.7233 24.884 51.2793 23.708 51.1833 22.412H57.2673C57.3393 23.108 57.6633 23.672 58.2393 24.104C58.8153 24.536 59.5233 24.752 60.3633 24.752C61.1313 24.752 61.7193 24.608 62.1273 24.32C62.5593 24.008 62.7753 23.612 62.7753 23.132C62.7753 22.556 62.4753 22.136 61.8753 21.872C61.2753 21.584 60.3033 21.272 58.9593 20.936C57.5193 20.6 56.3193 20.252 55.3593 19.892C54.3993 19.508 53.5713 18.92 52.8753 18.128C52.1793 17.312 51.8313 16.22 51.8313 14.852C51.8313 13.7 52.1433 12.656 52.7673 11.72C53.4153 10.76 54.3513 10.004 55.5753 9.452C56.8233 8.9 58.2993 8.624 60.0033 8.624C62.5233 8.624 64.5033 9.248 65.9433 10.496C67.4073 11.744 68.2473 13.4 68.4633 15.464H62.7753C62.6793 14.768 62.3673 14.216 61.8393 13.808C61.3353 13.4 60.6633 13.196 59.8233 13.196C59.1033 13.196 58.5513 13.34 58.1673 13.628C57.7833 13.892 57.5913 14.264 57.5913 14.744C57.5913 15.32 57.8913 15.752 58.4913 16.04C59.1153 16.328 60.0753 16.616 61.3713 16.904C62.8593 17.288 64.0713 17.672 65.0073 18.056C65.9433 18.416 66.7593 19.016 67.4553 19.856C68.1753 20.672 68.5473 21.776 68.5713 23.168C68.5713 24.344 68.2353 25.4 67.5633 26.336C66.9153 27.248 65.9673 27.968 64.7193 28.496C63.4953 29.024 62.0673 29.288 60.4353 29.288ZM103.69 3.728L94.7264 29H87.0224L78.0584 3.728H84.6104L90.8744 22.808L97.1744 3.728H103.69ZM125.199 18.632C125.199 19.208 125.163 19.808 125.091 20.432H111.159C111.255 21.68 111.651 22.64 112.347 23.312C113.067 23.96 113.943 24.284 114.975 24.284C116.511 24.284 117.579 23.636 118.179 22.34H124.731C124.395 23.66 123.783 24.848 122.895 25.904C122.031 26.96 120.939 27.788 119.619 28.388C118.299 28.988 116.823 29.288 115.191 29.288C113.223 29.288 111.471 28.868 109.935 28.028C108.399 27.188 107.199 25.988 106.335 24.428C105.471 22.868 105.039 21.044 105.039 18.956C105.039 16.868 105.459 15.044 106.299 13.484C107.163 11.924 108.363 10.724 109.899 9.884C111.435 9.044 113.199 8.624 115.191 8.624C117.135 8.624 118.863 9.032 120.375 9.848C121.887 10.664 123.063 11.828 123.903 13.34C124.767 14.852 125.199 16.616 125.199 18.632ZM118.899 17.012C118.899 15.956 118.539 15.116 117.819 14.492C117.099 13.868 116.199 13.556 115.119 13.556C114.087 13.556 113.211 13.856 112.491 14.456C111.795 15.056 111.363 15.908 111.195 17.012H118.899ZM134.603 12.26C135.323 11.156 136.223 10.292 137.303 9.668C138.383 9.02 139.583 8.696 140.903 8.696V15.212H139.211C137.675 15.212 136.523 15.548 135.755 16.22C134.987 16.868 134.603 18.02 134.603 19.676V29H128.447V8.912H134.603V12.26ZM142.621 18.92C142.621 16.856 143.005 15.044 143.773 13.484C144.565 11.924 145.633 10.724 146.977 9.884C148.321 9.044 149.821 8.624 151.477 8.624C152.893 8.624 154.129 8.912 155.185 9.488C156.265 10.064 157.093 10.82 157.669 11.756V8.912H163.825V29H157.669V26.156C157.069 27.092 156.229 27.848 155.149 28.424C154.093 29 152.857 29.288 151.441 29.288C149.809 29.288 148.321 28.868 146.977 28.028C145.633 27.164 144.565 25.952 143.773 24.392C143.005 22.808 142.621 20.984 142.621 18.92ZM157.669 18.956C157.669 17.42 157.237 16.208 156.373 15.32C155.533 14.432 154.501 13.988 153.277 13.988C152.053 13.988 151.009 14.432 150.145 15.32C149.305 16.184 148.885 17.384 148.885 18.92C148.885 20.456 149.305 21.68 150.145 22.592C151.009 23.48 152.053 23.924 153.277 23.924C154.501 23.924 155.533 23.48 156.373 22.592C157.237 21.704 157.669 20.492 157.669 18.956Z" fill="white"/>
</svg>
